<?xml version="1.0" standalone="no"?>
<!DOCTYPE svg PUBLIC "-//W3C//DTD SVG 20010904//EN"
 "http://www.w3.org/TR/2001/REC-SVG-20010904/DTD/svg10.dtd">
<svg version="1.0" xmlns="http://www.w3.org/2000/svg"
 width="302.000000pt" height="274.000000pt" viewBox="0 0 302.000000 274.000000"
 preserveAspectRatio="xMidYMid meet">
<metadata>
Created by potrace 1.16, written by Peter Selinger 2001-2019
</metadata>
<g transform="translate(0.000000,274.000000) scale(0.100000,-0.100000)"
fill="#000000" stroke="none">
<path d="M1324 2610 c-214 -56 -379 -223 -429 -433 -32 -135 -9 -310 57 -426
47 -82 169 -200 249 -239 171 -83 363 -83 536 0 81 39 213 165 256 245 58 109
82 280 56 405 -6 29 -29 91 -50 136 -115 248 -407 383 -675 312z m313 -278
c97 -51 153 -129 173 -241 27 -150 -44 -297 -175 -361 -45 -22 -65 -25 -207
-28 l-158 -4 0 136 0 136 -45 0 -46 0 3 63 3 62 43 3 42 3 0 131 0 130 163 -4
c144 -3 167 -6 204 -26z"/>
<path d="M1390 2165 l0 -65 65 0 65 0 0 -65 0 -65 -65 0 -65 0 0 -70 0 -70 53
0 c77 0 127 18 168 59 45 44 62 111 48 185 -20 107 -83 156 -202 156 l-67 0 0
-65z"/>
<path d="M693 1718 c-12 -6 -28 -24 -36 -40 -13 -26 -10 -50 33 -263 26 -129
51 -240 57 -247 5 -7 73 -101 150 -208 140 -195 140 -195 164 -292 l23 -98
133 0 c117 0 133 2 142 18 6 11 6 96 0 232 l-10 215 -68 189 c-72 202 -99 246
-151 246 -35 0 -56 -24 -71 -82 -11 -39 -10 -56 6 -114 10 -38 20 -76 23 -84
3 -7 -37 21 -88 63 l-95 77 -40 178 c-40 171 -42 177 -74 199 -37 25 -63 28
-98 11z"/>
<path d="M2140 1708 c-33 -22 -34 -28 -71 -198 -42 -196 -29 -174 -170 -285
-43 -34 -60 -43 -56 -29 43 144 44 181 11 245 -11 22 -22 29 -44 29 -58 0 -83
-39 -160 -248 l-72 -193 -1 -227 -2 -227 135 -3 136 -3 23 98 c24 98 24 98
161 288 75 105 144 201 152 215 14 23 108 442 108 481 0 9 -13 31 -29 48 -35
38 -74 40 -121 9z"/>
<path d="M100 300 l0 -140 73 0 c126 1 187 46 187 140 0 94 -61 139 -187 140
l-73 0 0 -140z m186 95 c14 -9 33 -33 41 -53 13 -32 14 -42 2 -76 -21 -58 -55
-79 -131 -80 l-63 -1 -3 104 c-1 58 0 111 3 119 7 20 116 10 151 -13z"/>
<path d="M2090 300 l0 -140 73 0 c122 0 181 47 180 141 -1 94 -59 139 -180
139 l-73 0 0 -140z m142 110 c51 -15 88 -61 88 -112 0 -74 -86 -130 -181 -116
-23 3 -24 6 -27 107 -1 58 0 111 2 118 6 16 66 17 118 3z"/>
<path d="M2435 309 c-33 -73 -61 -136 -63 -141 -2 -4 3 -8 11 -8 8 0 21 18 30
40 l16 41 78 -3 78 -3 18 -37 c10 -21 25 -38 32 -38 18 0 -106 274 -126 278
-10 2 -33 -39 -74 -129z"/>
<path d="M2742 420 c-68 -42 -91 -124 -52 -188 76 -124 270 -76 270 68 0 108
-125 177 -218 120z m148 -28 c57 -42 58 -138 3 -182 -82 -64 -193 -10 -193 95
0 95 111 145 190 87z"/>
<path d="M439 341 c-24 -24 -29 -38 -29 -76 0 -64 39 -105 100 -105 61 0 100
41 100 105 0 38 -5 52 -29 76 -41 41 -101 41 -142 0z m134 -22 c22 -28 22 -81
-2 -110 -22 -27 -87 -33 -114 -10 -22 18 -32 77 -18 107 21 47 99 55 134 13z"/>
<path d="M963 358 c-27 -13 -31 -33 -5 -23 62 24 122 7 122 -35 0 -17 -7 -20
-46 -20 -90 0 -133 -51 -84 -100 24 -24 77 -26 108 -4 20 14 22 14 22 0 0 -9
5 -16 10 -16 6 0 10 36 10 89 0 82 -2 91 -22 105 -26 18 -82 20 -115 4z"/>
<path d="M1473 346 c-81 -68 -25 -197 80 -183 57 8 87 43 87 102 0 61 -31 95
-91 102 -38 4 -50 1 -76 -21z m100 -7 c25 -11 47 -47 47 -74 0 -44 -43 -85
-91 -85 -33 0 -69 44 -69 85 0 25 8 44 25 60 26 27 51 31 88 14z"/>
</g>
</svg>
